<svg viewBox="0 0 170 24" fill="none" xmlns="http://www.w3.org/2000/svg">
<path d="M11.954 23.442C8.32733 23.442 5.494 22.4673 3.454 20.518C1.414 18.5687 0.394 15.8147 0.394 12.256C0.394 9.83067 0.87 7.68867 1.822 5.83C2.79667 3.97133 4.168 2.54333 5.936 1.546C7.704 0.525998 9.744 0.015998 12.056 0.015998C13.9373 0.015998 15.7507 0.355998 17.496 1.036L16.578 5.422C15.0367 4.71933 13.5407 4.368 12.09 4.368C10.0273 4.368 8.39533 5.048 7.194 6.408C5.99267 7.74533 5.392 9.536 5.392 11.78C5.392 14.0693 6.02667 15.8487 7.296 17.118C8.56533 18.3873 10.322 19.022 12.566 19.022C14.0393 19.022 15.4673 18.784 16.85 18.308L17.598 22.49C15.9433 23.1247 14.062 23.442 11.954 23.442ZM29.0911 23.51C27.3231 23.51 25.7591 23.1247 24.3991 22.354C23.0617 21.5833 22.0191 20.5067 21.2711 19.124C20.5231 17.7187 20.1491 16.098 20.1491 14.262C20.1491 12.426 20.5117 10.8167 21.2371 9.434C21.9851 8.02867 23.0277 6.94067 24.3651 6.17C25.7251 5.39933 27.2891 5.014 29.0571 5.014C30.8251 5.014 32.3777 5.39933 33.7151 6.17C35.0751 6.918 36.1177 7.98333 36.8431 9.366C37.5911 10.7487 37.9651 12.3467 37.9651 14.16C37.9651 15.996 37.5911 17.628 36.8431 19.056C36.1177 20.4613 35.0751 21.5607 33.7151 22.354C32.3777 23.1247 30.8364 23.51 29.0911 23.51ZM29.0571 19.362C30.2811 19.362 31.2557 18.8973 31.9811 17.968C32.7291 17.016 33.1031 15.7693 33.1031 14.228C33.1031 12.6867 32.7291 11.4627 31.9811 10.556C31.2557 9.62667 30.2811 9.162 29.0571 9.162C27.8331 9.162 26.8471 9.62667 26.0991 10.556C25.3737 11.4627 25.0111 12.6867 25.0111 14.228C25.0111 15.7693 25.3737 17.016 26.0991 17.968C26.8471 18.8973 27.8331 19.362 29.0571 19.362ZM41.5186 5.49H46.2106V8.21C47.5933 6.07933 49.4633 5.014 51.8206 5.014C53.1579 5.014 54.2913 5.33133 55.2206 5.966C56.1726 6.578 56.8639 7.462 57.2946 8.618C58.0879 7.37133 58.9719 6.46467 59.9466 5.898C60.9439 5.30867 62.0773 5.014 63.3466 5.014C65.2279 5.014 66.6899 5.58067 67.7326 6.714C68.7979 7.82467 69.3306 9.37733 69.3306 11.372V23H64.5366V12.12C64.5366 11.2133 64.3099 10.5107 63.8566 10.012C63.4259 9.49067 62.8366 9.23 62.0886 9.23C61.1593 9.23 60.2979 9.61533 59.5046 10.386C58.7113 11.1567 58.1219 12.1427 57.7366 13.344V23H52.9426V12.12C52.9426 11.236 52.7159 10.5333 52.2626 10.012C51.8093 9.49067 51.2086 9.23 50.4606 9.23C49.6219 9.23 48.8286 9.54733 48.0806 10.182C47.3553 10.794 46.7659 11.6667 46.3126 12.8V23H41.5186V5.49ZM73.5928 5.49H78.2848V8.21C79.6675 6.07933 81.5375 5.014 83.8948 5.014C85.2321 5.014 86.3655 5.33133 87.2948 5.966C88.2468 6.578 88.9381 7.462 89.3688 8.618C90.1621 7.37133 91.0461 6.46467 92.0208 5.898C93.0181 5.30867 94.1515 5.014 95.4208 5.014C97.3021 5.014 98.7641 5.58067 99.8068 6.714C100.872 7.82467 101.405 9.37733 101.405 11.372V23H96.6108V12.12C96.6108 11.2133 96.3841 10.5107 95.9308 10.012C95.5001 9.49067 94.9108 9.23 94.1628 9.23C93.2335 9.23 92.3721 9.61533 91.5788 10.386C90.7855 11.1567 90.1961 12.1427 89.8108 13.344V23H85.0168V12.12C85.0168 11.236 84.7901 10.5333 84.3368 10.012C83.8835 9.49067 83.2828 9.23 82.5348 9.23C81.6961 9.23 80.9028 9.54733 80.1548 10.182C79.4295 10.794 78.8401 11.6667 78.3868 12.8V23H73.5928V5.49ZM114.095 23.51C111.262 23.51 109.029 22.694 107.397 21.062C105.788 19.43 104.983 17.1633 104.983 14.262C104.983 12.3807 105.334 10.7487 106.037 9.366C106.74 7.96067 107.726 6.884 108.995 6.136C110.287 5.388 111.794 5.014 113.517 5.014C116.056 5.014 118.005 5.83 119.365 7.462C120.725 9.094 121.405 11.4513 121.405 14.534C121.405 15.0553 121.394 15.4407 121.371 15.69H109.811C110.038 16.8913 110.559 17.8093 111.375 18.444C112.191 19.056 113.29 19.362 114.673 19.362C115.512 19.362 116.384 19.26 117.291 19.056C118.198 18.8293 118.991 18.5347 119.671 18.172L120.453 22.014C119.546 22.49 118.538 22.8527 117.427 23.102C116.339 23.374 115.228 23.51 114.095 23.51ZM116.815 12.086C116.747 11.1113 116.407 10.3407 115.795 9.774C115.183 9.18467 114.367 8.89 113.347 8.89C112.372 8.89 111.568 9.17333 110.933 9.74C110.321 10.3067 109.936 11.0887 109.777 12.086H116.815ZM125.093 5.49H129.887V8.346H130.159C130.817 7.19 131.463 6.34 132.097 5.796C132.755 5.252 133.571 4.98 134.545 4.98C134.953 4.98 135.293 5.02533 135.565 5.116L135.055 10.284C134.466 10.1253 133.99 10.046 133.627 10.046C133.106 10.046 132.641 10.148 132.233 10.352C131.848 10.556 131.497 10.828 131.179 11.168C130.885 11.508 130.454 12.0293 129.887 12.732V23H125.093V5.49ZM146.134 23.51C143.232 23.51 140.977 22.7393 139.368 21.198C137.781 19.6567 136.988 17.4807 136.988 14.67C136.988 12.766 137.362 11.0887 138.11 9.638C138.858 8.16467 139.912 7.03133 141.272 6.238C142.632 5.422 144.207 5.014 145.998 5.014C146.836 5.014 147.709 5.116 148.616 5.32C149.545 5.50133 150.259 5.71667 150.758 5.966L149.84 10.012C149.318 9.76267 148.74 9.57 148.106 9.434C147.494 9.27533 146.916 9.196 146.372 9.196C144.966 9.196 143.833 9.672 142.972 10.624C142.133 11.576 141.714 12.834 141.714 14.398C141.714 15.9847 142.144 17.2087 143.006 18.07C143.89 18.9313 145.136 19.362 146.746 19.362C147.811 19.362 148.956 19.158 150.18 18.75L150.894 22.626C149.42 23.2153 147.834 23.51 146.134 23.51ZM162.406 23.51C159.572 23.51 157.34 22.694 155.708 21.062C154.098 19.43 153.294 17.1633 153.294 14.262C153.294 12.3807 153.645 10.7487 154.348 9.366C155.05 7.96067 156.036 6.884 157.306 6.136C158.598 5.388 160.105 5.014 161.828 5.014C164.366 5.014 166.316 5.83 167.676 7.462C169.036 9.094 169.716 11.4513 169.716 14.534C169.716 15.0553 169.704 15.4407 169.682 15.69H158.122C158.348 16.8913 158.87 17.8093 159.686 18.444C160.502 19.056 161.601 19.362 162.984 19.362C163.822 19.362 164.695 19.26 165.602 19.056C166.508 18.8293 167.302 18.5347 167.982 18.172L168.764 22.014C167.857 22.49 166.848 22.8527 165.738 23.102C164.65 23.374 163.539 23.51 162.406 23.51ZM165.126 12.086C165.058 11.1113 164.718 10.3407 164.106 9.774C163.494 9.18467 162.678 8.89 161.658 8.89C160.683 8.89 159.878 9.17333 159.244 9.74C158.632 10.3067 158.246 11.0887 158.088 12.086H165.126Z" fill="#313D50"/>
</svg>
