<svg width="20" height="25" viewBox="0 0 20 25" fill="none" xmlns="http://www.w3.org/2000/svg">
<path d="M10 0C4.48625 0 0 4.48625 0 10C0 15.1869 6.54187 25 10 25C13.4575 25 20 15.1869 20 10C20 4.48625 15.5137 0 10 0ZM10 22.4988C8.27125 22.25 2.5 14.3938 2.5 10C2.5 5.86438 5.86437 2.5 10 2.5C14.1356 2.5 17.5 5.86438 17.5 10C17.5 14.3938 11.7287 22.25 10 22.4988Z" fill="white"/>
<path d="M10 12.5C11.3807 12.5 12.5 11.3807 12.5 10C12.5 8.61929 11.3807 7.5 10 7.5C8.61929 7.5 7.5 8.61929 7.5 10C7.5 11.3807 8.61929 12.5 10 12.5Z" fill="white"/>
</svg>
