<svg width="23" height="23" viewBox="0 0 23 23" fill="none" xmlns="http://www.w3.org/2000/svg">
<path d="M19.9446 19.2797C21.8342 17.2292 23 14.5015 23 11.5C23 5.15919 17.8408 0 11.5 0C5.15919 0 0 5.15919 0 11.5C0 14.4979 1.16222 17.2227 3.04822 19.2718C3.07984 19.3186 3.11866 19.3574 3.16106 19.3955C5.25837 21.6099 8.21675 23 11.5 23C14.771 23 17.7208 21.62 19.8167 19.4199C19.8655 19.3775 19.9087 19.3329 19.9446 19.2797ZM11.5 2C17.0487 2 21 5.95125 21 11.5C21 13.6297 20.8926 15.6041 19.7592 17.232C18.9685 14.5482 16.9215 12.4538 14.3153 11.5589C15.4366 10.7043 16.1654 9.35956 16.1654 7.84444C16.1654 5.26844 14.0695 3.17256 11.4935 3.17256C8.91753 3.17256 6.82166 5.26844 6.82166 7.84444C6.82166 9.36172 7.55191 10.7079 8.67603 11.5625C6.07847 12.4588 4.03147 14.5489 3.23509 17.2248C2.1045 15.5976 2 13.6261 2 11.5C2 5.95125 5.95125 2 11.5 2ZM11.5 10.5C9.71678 10.5 8.67603 9.78322 8.67603 8C8.67603 6.21678 9.70959 5 11.4935 5C13.2767 5 14.5 6.06122 14.5 7.84444C14.5 9.62766 13.2832 10.5 11.5 10.5ZM4.5 18.6314C5.02756 15.1369 7.91703 13.0057 11.5 13C15.088 13 17.9839 14.9939 18.5 18.5C16.6794 20.3098 14.2636 21 11.5 21C8.73137 21 6.32131 20.447 4.5 18.6314Z" fill="white"/>
</svg>
